<?xml version="1.0" encoding="UTF-8"?>
<!DOCTYPE svg PUBLIC "-//W3C//DTD SVG 1.1//EN" "http://www.w3.org/Graphics/SVG/1.1/DTD/svg11.dtd">
<!-- Creator: CorelDRAW -->
<svg xmlns="http://www.w3.org/2000/svg" xml:space="preserve" width="2048px" height="2048px" style="shape-rendering:geometricPrecision; text-rendering:geometricPrecision; image-rendering:optimizeQuality; fill-rule:evenodd; clip-rule:evenodd"
viewBox="0 0 2048 2048"
 xmlns:xlink="http://www.w3.org/1999/xlink">
 <defs>
  <style type="text/css">
   <![CDATA[
    .fil2 {fill:none}
    .fil0 {fill:#212121;fill-rule:nonzero}
    .fil1 {fill:#66BB6A;fill-rule:nonzero}
   ]]>
  </style>
 </defs>
 <g id="Layer_x0020_1">
  <metadata id="CorelCorpID_0Corel-Layer"/>
  <path class="fil0" d="M1346.82 382.948c-13.2543,0 -24,10.7457 -24,24 0,13.2543 10.7457,24 24,24l194.114 0 0 1313.05 -1033.86 0 0 -1313.05 194.116 0c13.2543,0 24,-10.7457 24,-24 0,-13.2543 -10.7457,-24 -24,-24l-218.116 0c-13.2543,0 -24,10.7457 -24,24l0 1361.05c0,13.2543 10.7457,24 24,24l1081.86 0c13.2543,0 24,-10.7457 24,-24l0 -1361.05c0,-13.2543 -10.7457,-24 -24,-24l-218.114 0z"/>
  <path class="fil0" d="M689.597 551.999l668.808 0 -73.0973 -248.001 -522.613 0 -73.0973 248.001zm700.841 48l-732.382 0c-2.40118,0.0484252 -4.85079,-0.264567 -7.27678,-0.979135 -12.7134,-3.74646 -19.9819,-17.0929 -16.2354,-29.8063l0.0578741 0.0165354 86.7532 -294.333c2.33858,-10.8047 11.9516,-18.8988 23.4555,-18.8988l557.94 0c10.5402,-0.199606 20.3386,6.61418 23.4626,17.2146l-23.0209 6.78544 22.9689 -6.75001 86.7426 294.296c0.989765,2.62914 1.53425,5.47914 1.53425,8.45552 0,13.2543 -10.7457,24 -24,24z"/>
  <path class="fil0" d="M1371.45 487.589c-13.2543,0 -24,10.7457 -24,24 0,13.2543 10.7457,24 24,24l64.7823 0 0 1103.72 -824.468 0 0 -1103.72 64.7823 0c13.2543,0 24,-10.7457 24,-24 0,-13.2543 -10.7457,-24 -24,-24l-88.7824 0c-13.2543,0 -24,10.7457 -24,24l0 1151.72c0,13.2543 10.7457,24 24,24l872.468 0c13.2543,0 24,-10.7457 24,-24l0 -1151.72c0,-13.2543 -10.7457,-24 -24,-24l-88.7824 0z"/>
  <path class="fil1" d="M684.602 691.713l128.001 0c13.2543,0 24,10.7457 24,24l0 128.001c0,13.2543 -10.7457,24 -24,24l-128.001 0c-13.2543,0 -24,-10.7457 -24,-24l0 -128.001c0,-13.2543 10.7457,-24 24,-24zm104.001 48l-80.0008 0 0 80.0008 80.0008 0 0 -80.0008z"/>
  <polygon class="fil1" points="883.398,819.712 1363.4,819.712 1363.4,867.712 883.398,867.712 "/>
  <path class="fil1" d="M684.602 999.446l128.001 0c13.2543,0 24,10.7457 24,24l0 128.001c0,13.2543 -10.7457,24 -24,24l-128.001 0c-13.2543,0 -24,-10.7457 -24,-24l0 -128.001c0,-13.2543 10.7457,-24 24,-24zm104.001 48l-80.0008 0 0 80.0008 80.0008 0 0 -80.0008z"/>
  <polygon class="fil1" points="883.398,1127.44 1363.4,1127.44 1363.4,1175.44 883.398,1175.44 "/>
  <path class="fil1" d="M684.602 1307.18l128.001 0c13.2543,0 24,10.7457 24,24l0 128.001c0,13.2543 -10.7457,24 -24,24l-128.001 0c-13.2543,0 -24,-10.7457 -24,-24l0 -128.001c0,-13.2543 10.7457,-24 24,-24zm104.001 48l-80.0008 0 0 80.0008 80.0008 0 0 -80.0008z"/>
  <polygon class="fil1" points="883.398,1435.18 1363.4,1435.18 1363.4,1483.18 883.398,1483.18 "/>
 </g>
 <rect class="fil2" width="2048" height="2048"/>
</svg>
